<?xml version="1.0" encoding="UTF-8"?>
<svg width="871" height="411" viewBox="0 0 871 411" fill="none" xmlns="http://www.w3.org/2000/svg">
<path fill-rule="evenodd" clip-rule="evenodd" d="M599 21H0V309H599V21ZM75.0051 175.983C57.6759 160.128 38.8 142.858 38.8 110.4C38.8 76.8 55.3 57.6 87.4 57.6C119.5 57.6 136 76.8 136 110.4V117H104.8V108.3C104.8 93.3 98.8 87.6 88.3 87.6C77.8 87.6 71.8 93.3 71.8 108.3C71.8 128.13 85.3906 140.564 100.095 154.017C117.424 169.872 136.3 187.142 136.3 219.6C136.3 253.2 119.5 272.4 87.1 272.4C54.7 272.4 37.9 253.2 37.9 219.6V206.7H69.1V221.7C69.1 236.7 75.7 242.1 86.2 242.1C96.7 242.1 103.3 236.7 103.3 221.7C103.3 201.87 89.7094 189.436 75.0051 175.983ZM180.107 60H228.407L262.007 270H228.707L223.007 231.9H182.507L176.807 270H146.507L180.107 60ZM218.507 203.4L202.607 97.2L186.707 203.4H218.507ZM277.075 60H322.975L347.275 209.1L369.775 60H415.675V270H384.475V119.4L361.675 270H330.475L305.875 121.5V270H277.075V60ZM438.18 219.9V60H471.18V222C471.18 237 477.78 242.4 488.28 242.4C498.78 242.4 505.38 237 505.38 222V60H536.58V219.9C536.58 253.5 519.78 272.7 487.38 272.7C454.98 272.7 438.18 253.5 438.18 219.9Z" fill="white"/>
<path d="M694.384 309C689.852 298.288 689.44 287.988 689.44 273.98V229.484C689.44 199.408 682.024 177.572 659.364 168.096C679.552 158.62 689.028 139.256 689.028 109.592V86.932C689.028 42.436 668.84 20.6 621.872 20.6H553.48V309H598.8V191.58H614.456C635.056 191.58 644.12 201.468 644.12 228.248V273.568C644.12 297.052 645.768 301.584 648.24 309H694.384ZM620.636 61.8C636.704 61.8 643.708 70.864 643.708 91.464V119.892C643.708 142.964 633.408 150.38 616.516 150.38H598.8V61.8H620.636ZM819.774 20.6H753.442L707.298 309H748.91L756.738 256.676H812.358L820.186 309H865.918L819.774 20.6ZM784.342 71.688L806.178 217.536H762.506L784.342 71.688Z" fill="white"/>
</svg>
